<?xml version="1.0" standalone="no"?><!DOCTYPE svg PUBLIC "-//W3C//DTD SVG 1.1//EN" "http://www.w3.org/Graphics/SVG/1.1/DTD/svg11.dtd"><svg class="icon" width="32px" height="32.00px" viewBox="0 0 1024 1024" version="1.1" xmlns="http://www.w3.org/2000/svg"><path fill="#5149e4" d="M236.089 1006.933C59.733 881.778 14.222 762.311 99.556 648.533c48.355-51.2 213.333-145.066 238.933-219.022 25.6-56.889 76.8-290.133-25.6-420.978-5.689-28.444 128 45.511 170.667 96.711s196.266 227.556 0 398.223c-105.245 116.622-224.712 153.6-273.067 247.466-22.756 68.267-14.222 153.6 25.6 256zM708.267 162.133c48.355 139.378 45.51 233.245-8.534 284.445C640 526.222 577.423 568.888 429.511 659.91c-31.289 22.756-130.844 91.022-119.467 182.045C369.778 756.622 426.667 725.333 512 725.333s284.444 22.756 355.556-179.2c42.666-136.533-8.534-264.533-159.29-384zM913.067 605.867c-71.111 116.622-142.223 184.889-216.178 204.8-56.889 17.066-142.222 8.533-256-25.6l-96.711 125.155c170.666-68.266 312.889-34.133 429.51 99.556 31.29 25.6 167.823-128 167.823-403.911-2.844-17.067-14.222-17.067-28.444 0z" /></svg>